<svg width="97" height="96" viewBox="0 0 97 96" fill="none" xmlns="http://www.w3.org/2000/svg">
<g clip-path="url(#clip0_98_14513)">
<circle opacity="0.12" cx="48.5" cy="48.0001" r="48" fill="#DB524E"/>
<path fill-rule="evenodd" clip-rule="evenodd" d="M31.5054 60.1387C30.1646 61.4795 30.1646 63.6533 31.5054 64.9941C32.8462 66.335 35.0201 66.335 36.3609 64.9942L48.4996 52.8555L60.6387 64.9946C61.9795 66.3354 64.1534 66.3354 65.4942 64.9946C66.835 63.6538 66.835 61.4799 65.4942 60.1391L53.3551 48L65.4939 35.8612C66.8347 34.5204 66.8347 32.3465 65.4939 31.0057C64.1531 29.6649 61.9792 29.6649 60.6384 31.0057L48.4996 43.1445L36.3612 31.0061C35.0204 29.6653 32.8465 29.6653 31.5057 31.0061C30.1649 32.347 30.1649 34.5208 31.5057 35.8616L43.6441 48L31.5054 60.1387Z" fill="#C7302B"/>
</g>
<defs>
<clipPath id="clip0_98_14513">
<rect width="96" height="96" fill="white" transform="translate(0.5)"/>
</clipPath>
</defs>
</svg>
